<svg width="51" height="117" viewBox="0 0 51 117" fill="none" xmlns="http://www.w3.org/2000/svg">
<path d="M-44.08 116.84C-96.42 116.84 -139 74.26 -139 21.92C-139 -30.42 -96.42 -73 -44.08 -73C8.25998 -73 50.84 -30.42 50.84 21.92C50.83 74.26 8.24998 116.84 -44.08 116.84ZM-44.08 -69.81C-94.66 -69.81 -135.81 -28.66 -135.81 21.92C-135.81 72.5 -94.66 113.65 -44.08 113.65C6.49998 113.65 47.65 72.5 47.65 21.92C47.65 -28.66 6.49998 -69.81 -44.08 -69.81Z" fill="white"/>
<path d="M-44.08 106.47C-90.7 106.47 -128.63 68.54 -128.63 21.92C-128.63 -24.7 -90.7 -62.63 -44.08 -62.63C2.53998 -62.63 40.47 -24.7 40.47 21.92C40.46 68.54 2.52998 106.47 -44.08 106.47ZM-44.08 -59.44C-88.94 -59.44 -125.44 -22.94 -125.44 21.92C-125.44 66.78 -88.94 103.28 -44.08 103.28C0.779984 103.28 37.28 66.78 37.28 21.92C37.28 -22.94 0.779984 -59.44 -44.08 -59.44Z" fill="white"/>
<path d="M-44.08 96.1C-84.98 96.1 -118.26 62.82 -118.26 21.92C-118.26 -18.98 -84.98 -52.26 -44.08 -52.26C-3.18002 -52.26 30.1 -18.98 30.1 21.92C30.09 62.82 -3.18002 96.1 -44.08 96.1ZM-44.08 -49.07C-83.23 -49.07 -115.07 -17.22 -115.07 21.92C-115.07 61.07 -83.22 92.91 -44.08 92.91C-4.94002 92.91 26.91 61.06 26.91 21.92C26.91 -17.22 -4.94002 -49.07 -44.08 -49.07Z" fill="white"/>
<path d="M-44.08 85.73C-79.26 85.73 -107.89 57.11 -107.89 21.92C-107.89 -13.26 -79.27 -41.89 -44.08 -41.89C-8.90002 -41.89 19.73 -13.27 19.73 21.92C19.72 57.11 -8.90002 85.73 -44.08 85.73ZM-44.08 -38.7C-77.51 -38.7 -104.7 -11.5 -104.7 21.92C-104.7 55.35 -77.5 82.54 -44.08 82.54C-10.66 82.54 16.54 55.34 16.54 21.92C16.54 -11.5 -10.66 -38.7 -44.08 -38.7Z" fill="white"/>
<path d="M-44.08 75.36C-73.55 75.36 -97.52 51.39 -97.52 21.92C-97.52 -7.55002 -73.55 -31.52 -44.08 -31.52C-14.61 -31.52 9.35999 -7.55002 9.35999 21.92C9.34998 51.39 -14.62 75.36 -44.08 75.36ZM-44.08 -28.33C-71.79 -28.33 -94.33 -5.79002 -94.33 21.92C-94.33 49.63 -71.79 72.18 -44.08 72.18C-16.37 72.18 6.16998 49.64 6.16998 21.92C6.16998 -5.79002 -16.37 -28.33 -44.08 -28.33Z" fill="white"/>
</svg>
