<svg width="42" height="42" viewBox="0 0 42 42" fill="none" xmlns="http://www.w3.org/2000/svg">
<path d="M37.7999 0H4.20012C1.88146 0.00224305 0.00269165 1.56789 0 3.50011V37.0999C0 38.2599 1.12818 39.2 2.52015 39.2V41.2999C2.52015 41.6866 2.89621 42 3.35994 42H38.6401C39.1038 42 39.4799 41.6866 39.4799 41.2999V39.2C40.8714 39.2 42 38.2599 42 37.0999V3.50011C41.9969 1.56789 40.1185 0.00224305 37.7999 0V0ZM4.20012 1.39998H37.7999C39.1915 1.39998 40.32 2.34013 40.32 3.50011V8.40019H1.67997V3.50011C1.67997 2.34013 2.80815 1.39998 4.20012 1.39998ZM37.7999 40.6H4.20012V39.2H37.7999V40.6ZM39.4799 37.8001H2.52015C2.05603 37.8001 1.67997 37.4867 1.67997 37.0999V9.79985H40.32V37.0999C40.32 37.4867 39.944 37.8001 39.4799 37.8001V37.8001Z" fill="black"/>
<path d="M4.49899 6.2979H14.0281C14.4668 6.2979 14.8224 5.98451 14.8224 5.59806V2.79806C14.8224 2.41129 14.4668 2.0979 14.0281 2.0979H4.49899C4.06023 2.0979 3.70471 2.41129 3.70471 2.79806V5.59806C3.70471 5.98451 4.06023 6.2979 4.49899 6.2979ZM5.29289 3.4979H13.2342V4.8979H5.29289V3.4979Z" fill="black"/>
<path d="M19.7657 6.2979C21.1304 6.2979 22.2365 5.35773 22.2365 4.19806C22.2365 3.03807 21.1304 2.0979 19.7657 2.0979C18.4014 2.0979 17.2953 3.03807 17.2953 4.19806C17.2953 5.35773 18.4014 6.2979 19.7657 6.2979ZM19.7657 3.4979C20.2207 3.4979 20.5894 3.81129 20.5894 4.19806C20.5894 4.58451 20.2207 4.8979 19.7657 4.8979C19.311 4.8979 18.9423 4.58451 18.9423 4.19806C18.9423 3.81129 19.311 3.4979 19.7657 3.4979Z" fill="black"/>
<path d="M25.9412 6.2979C27.3059 6.2979 28.412 5.35773 28.412 4.19806C28.412 3.03807 27.3059 2.0979 25.9412 2.0979C24.5769 2.0979 23.4708 3.03807 23.4708 4.19806C23.4708 5.35773 24.5769 6.2979 25.9412 6.2979ZM25.9412 3.4979C26.3962 3.4979 26.7649 3.81129 26.7649 4.19806C26.7649 4.58451 26.3962 4.8979 25.9412 4.8979C25.4866 4.8979 25.1179 4.58451 25.1179 4.19806C25.1179 3.81129 25.4866 3.4979 25.9412 3.4979Z" fill="black"/>
<path d="M30.5728 5.25142H32.4257C32.9372 5.25142 33.352 5.01637 33.352 4.72654C33.352 4.43646 32.9372 4.20142 32.4257 4.20142H30.5728C30.0609 4.20142 29.6461 4.43646 29.6461 4.72654C29.6461 5.01637 30.0609 5.25142 30.5728 5.25142Z" fill="black"/>
<path d="M36.4424 5.25142H37.6776C38.0188 5.25142 38.2953 5.01637 38.2953 4.72654C38.2953 4.43646 38.0188 4.20142 37.6776 4.20142H36.4424C36.1012 4.20142 35.8247 4.43646 35.8247 4.72654C35.8247 5.01637 36.1012 5.25142 36.4424 5.25142V5.25142Z" fill="black"/>
<circle cx="21.4993" cy="23.4991" r="10.75" stroke="black" stroke-width="1.5"/>
<path d="M11.0007 24C12.4007 21.7361 16.5207 18.5667 21.8007 24C27.0807 29.4333 30.8007 26.2639 32.0007 24" stroke="black" stroke-width="1.5"/>
</svg>
