<svg width="55" height="42" viewBox="0 0 55 42" fill="none" xmlns="http://www.w3.org/2000/svg">
<path d="M27.2191 42C22.7848 42 18.5179 40.6614 14.8506 38.1096C11.1972 35.5717 8.49203 32.0857 7.01394 28.0139L6.94422 27.8327H6.749C3.02589 27.7908 0 24.7231 0 21C0 17.2769 3.02589 14.2092 6.749 14.1673H6.94422L7.01394 13.9861C8.49203 9.91434 11.1972 6.42829 14.8506 3.89044C18.5179 1.35259 22.7848 0 27.2191 0C28.1115 0 29.0458 0.0697211 30.0637 0.209163H30.0777H30.0916C30.1334 0.209163 30.1892 0.209163 30.2311 0.209163C30.2868 0.209163 30.3287 0.209163 30.3844 0.209163C30.496 0.209163 30.5936 0.237052 30.7191 0.278884L30.747 0.292829H30.7749C34.5119 0.920319 38.0259 2.5239 40.9681 4.92231C43.9243 7.33466 46.1554 10.4721 47.4382 13.9861L47.5079 14.1673H47.7032C51.4263 14.2092 54.4522 17.2769 54.4522 21C54.4522 24.2351 52.1653 27.0379 49 27.6932C48.1773 27.2749 47.2569 27.0518 46.3366 27.0518C46.0717 27.0518 45.7928 27.0657 45.5139 27.1076C45.5976 26.8705 45.6812 26.6335 45.751 26.4104L46.0159 25.5458L46.9083 25.6853C47.1733 25.7271 47.3964 25.741 47.6055 25.741C50.2131 25.741 52.3326 23.6215 52.3326 21.0139C52.3326 18.4064 50.2131 16.2869 47.6055 16.2869C47.3964 16.2869 47.1733 16.3008 46.9083 16.3426L46.0159 16.4681L45.751 15.6036C43.6175 8.58964 37.4123 3.3745 29.9661 2.31474H29.9522H29.9382C29.6593 2.3008 29.3805 2.3008 29.1155 2.3008C27.3307 2.3008 25.8107 2.5239 24.486 2.98406C23.4821 3.33267 21.7669 4.40637 21.502 5.78685C21.4044 6.2749 21.4601 7.01394 22.2689 7.75299C23.3705 8.74303 25.2111 9.35657 27.0797 9.35657C27.7769 9.35657 28.4183 9.27291 28.99 9.10558C29.6175 8.9243 30.7191 8.40837 30.8028 7.64143C30.8307 7.33466 30.7191 6.90239 29.994 6.49801C29.3944 6.16335 28.7809 6.00996 28.1534 6.00996C27.6095 6.00996 27.0518 6.12151 26.4382 6.37251C26.2988 6.42829 26.1733 6.45618 26.0617 6.45618C25.5737 6.45618 25.3227 6.0239 25.253 5.66135C25.1693 5.21514 25.2948 4.58765 25.9502 4.33665C26.6613 4.05777 27.4283 3.90438 28.1952 3.90438C29.492 3.90438 30.7191 4.32271 31.6255 5.10359C32.741 6.05179 33.4801 7.75299 32.6295 9.02191C31.2072 11.1554 28.5996 11.4761 27.1773 11.4761C25.6155 11.4761 23.9562 11.1135 22.6036 10.4721C20.0797 9.28685 18.7968 6.38646 19.8147 4.14144L20.1076 3.48606L19.4522 3.77888C14.237 6.03785 10.3187 10.3745 8.70119 15.6454L8.43625 16.51L7.54382 16.3845C7.26494 16.3426 7.04183 16.3287 6.84661 16.3287C4.23904 16.3287 2.11952 18.4482 2.11952 21.0558C2.11952 23.6633 4.23904 25.7829 6.84661 25.7829C7.05577 25.7829 7.27888 25.7689 7.54382 25.7271L8.43625 25.5877L8.70119 26.4522C11.1275 34.4004 18.741 39.9502 27.2331 39.9502C29.9801 39.9502 32.6574 39.3645 35.2091 38.2211C35.6693 38.751 36.1852 39.2948 36.7709 39.8108C33.7729 41.2331 30.4821 42 27.2191 42Z" fill="black"/>
<path d="M21.5985 23.3454C20.6084 23.3454 20.1622 22.5645 20.1622 21.8534C20.1622 21.449 20.2877 21.0864 20.5248 20.8215C20.7758 20.5287 21.1523 20.3613 21.5985 20.3613C22.5885 20.3613 23.0347 21.1422 23.0347 21.8534C23.0347 22.2577 22.9092 22.6203 22.6722 22.8852C22.4212 23.192 22.0447 23.3454 21.5985 23.3454Z" fill="black"/>
<path d="M32.8379 23.1163C31.8478 23.1163 31.4016 22.3354 31.4016 21.6242C31.4016 21.2199 31.5271 20.8573 31.7642 20.5924C32.0152 20.2995 32.3917 20.1322 32.8379 20.1322C33.8279 20.1322 34.2741 20.9131 34.2741 21.6242C34.2741 22.3493 33.8279 23.1163 32.8379 23.1163Z" fill="black"/>
<path d="M27.2185 32.2574C25.8938 32.2574 24.6528 31.7414 23.7185 30.8072C22.7842 29.8729 22.2683 28.6319 22.2683 27.3072C22.2683 26.7215 22.7424 26.2614 23.3141 26.2614C23.8998 26.2614 24.3599 26.7355 24.3599 27.3072C24.3599 28.8829 25.6428 30.1518 27.2046 30.1518C28.7803 30.1518 30.0492 28.8689 30.0492 27.3072C30.0492 26.7215 30.5233 26.2614 31.095 26.2614C31.6807 26.2614 32.1408 26.7355 32.1408 27.3072C32.1687 30.0402 29.9516 32.2574 27.2185 32.2574Z" fill="black"/>
<path d="M42.5022 41.4934C37.6217 38.9556 35.1396 35.6647 35.8647 32.6807C36.3249 30.7564 38.1237 29.3619 40.1317 29.3619C40.9125 29.3619 41.6655 29.5711 42.3627 29.9615L42.5022 30.0452L42.6416 29.9615C43.311 29.5711 44.0361 29.3759 44.803 29.3759C46.8528 29.3759 48.6934 30.7842 49.1536 32.7364C49.5022 34.1727 49.5301 37.84 42.5022 41.4934ZM40.1596 31.4954C39.0859 31.4954 38.1795 32.1508 37.9006 33.1269C37.6635 33.9775 37.6357 36.2364 42.3488 39.0253L42.4882 39.1089L42.6277 39.0253C47.1456 36.334 47.3548 34.2006 47.0759 33.1827C46.7691 32.0811 45.7233 31.4954 44.8309 31.4954C43.8269 31.4954 43.2552 32.0671 42.6416 32.6807C42.5859 32.7364 42.544 32.7783 42.4882 32.834C42.4325 32.7783 42.3906 32.7364 42.3349 32.6807C41.7353 32.0671 41.1635 31.4954 40.1596 31.4954Z" fill="black"/>
</svg>
