<svg xmlns="http://www.w3.org/2000/svg" viewBox="0 0 725.87 847.63"><defs><style>.cls-1{fill:#ed1c29;}</style></defs><title>Layer 1</title><g id="Layer_2" data-name="Layer 2"><g id="Layer_1-2" data-name="Layer 1"><path class="cls-1" d="M551.49,357.09a5.92,5.92,0,0,1,0-1.33v-6.62c0-1.4-.6-1.94-2-2-3.41-.17-6.82-.41-10.22-.69-4.84-.41-9.67-.92-14.51-1.33-5.79-.49-11.58-1.3-17.37-1.29-13.93,0-27.86.4-41.79.64h-.44c-4.55.44-9.09.92-13.64,1.31-3.26.28-6.53.44-9.8.67-.29,0-.56.17-.85.19a117,117,0,0,1-12.11,1c-4,0-8.05-.8-12.08-1.22-2.38-.25-4.8-.31-7.15-.73-4.38-.78-8.76-1.65-13.09-2.67-4.69-1.11-9.34-2.36-14-3.69-5.67-1.62-11.29-3.39-16.93-5.1a4.58,4.58,0,0,1-1.56-.74l-11.54-3.63a11.36,11.36,0,0,1-1.85-.32,52,52,0,0,0-15.17-1.35c-1.7.13-2.4-.36-2.63-1.73l.48,14.84c6.89-2.36,12.67.68,18.94,1.79v.16l10.37,3.2a.38.38,0,0,0,0-.15c2.25.75,4.14,1.46,6.06,2,6.75,2,13.49,4,20.27,5.89,3.18.89,6.43,1.58,9.67,2.2,3.05.59,6.13,1,9.2,1.45,4.58.67,9.12,1.73,13.72,1.88a136,136,0,0,0,26.21-1.17c5.36-.86,10.84-1,16.25-1.46,3-.25,6-.5,8.93-.65,5.85-.28,11.68-.59,17.52-.67,2.9,0,5.79.61,8.7.61a157.24,157.24,0,0,1,22,1.34c4.88.7,9.8,1,14.72,1.37,4.43.33,8.88.54,13.32.7C552,359.9,552,359.82,551.49,357.09Z"/><path d="M351.4,350.18c-.56,4.81-1.18,9.62-1.71,14.44a1.94,1.94,0,0,1-1.84,2,1.63,1.63,0,0,1-.44,0c-3.31,0-6.61.09-9.92,0a2.12,2.12,0,0,1-1.63-1.19c-.94-8-1.76-15.95-2.61-24v-.13h0l-.45-14.79c0-.25-.07-.51-.09-.82-.7-14.79-.67-29.56,1.86-44.2a51,51,0,0,1,3.37-10.66c1-2.48,2.85-4.53,6-4.52s5,1.88,6.38,4.38c2.44,4.41,3.31,9.3,3.7,14.19.59,7.33.76,14.68,1,20.51-.54,8.36-1,15.19-1.43,22-.13,1.95-.19,2.54-1.15,2.51L364,333.53a2.6,2.6,0,0,1-.84-2.49c.36-4.1.38-8.23.45-12.35.25-15.54.28-31.07-2.83-46.4-1.17-5.79-2.73-11.47-6.21-16.37-5.55-7.8-15.42-8.28-21.3-.67a37.06,37.06,0,0,0-5.45,10.95c-3,9.16-3.64,18.77-3.86,28.33-.25,11-.09,21.93,0,32.89a4.53,4.53,0,0,1-.12,1.16l.87,15.5a9.3,9.3,0,0,1,.21,1.47q.77,14.67,1.48,29.33c.75,14.48,1.55,29,2.28,43.44.65,12.93,1.65,25.87,1.77,38.81.79,81.93,1.64,163.86,1.88,245.79.1,31.48,1.86,62.81,4.48,94.13,1.15,13.79,2.13,27.59,3.19,41.38a19.09,19.09,0,0,0,.21,2h.59c.23-2,.45-4,.68-6.07q1.89-16.89,3.75-33.78c1.27-11.48,2.61-23,3.73-34.45.92-9.44,2-18.9,2.23-28.36.49-17.44.49-34.89.62-52.34.48-61.46.68-122.93,1.49-184.39.34-26.27,1.51-52.54,3-78.76,1.44-24.76,3.84-49.45,5.83-74.17a13.68,13.68,0,0,1,.4-1.68l-10.36-3.2C351.9,345.65,351.67,347.92,351.4,350.18Z"/><path class="cls-1" d="M607.58,164.82a68.34,68.34,0,0,0-1.41-8.29c-2.5-8.82-7.36-16-15.33-20.83a25.91,25.91,0,0,0-20.53-2.84,44.71,44.71,0,0,0-20.8,12.51,104.59,104.59,0,0,0-10.36,12.37,179,179,0,0,0-11.1,17.56,204.78,204.78,0,0,0-13.15,28.84c-3.45,9.69-7.1,19.32-10.77,29.29-2.3.22-5.13.42-7.93.77-4.87.62-9.71,1.41-14.58,2s-9.53.89-14.28,1.42c-2.12.23-4.21.7-6.48,1.09-1.51-4.07-3.05-8.08-4.49-12.12-2.15-6-4.33-12.1-6.31-18.21-1.51-4.62-2.81-9.31-4-14-.51-2-1.83-4.13.6-6a108.9,108.9,0,0,0,10.49-8.57c6.79-6.75,14.12-13,19.69-20.93,3.25-4.6,6.83-9,9.59-13.88,5.48-9.64,9.65-20,10.8-31a80.2,80.2,0,0,0-.71-19.88,39,39,0,0,0-6.44-16.05c-4.09-5.94-9-10.71-15.77-13.48a25.92,25.92,0,0,0-13.78-1.4,27.41,27.41,0,0,0-16,8.58,75.78,75.78,0,0,0-5.6,6.91,54.37,54.37,0,0,0-8.27,17.26,161.35,161.35,0,0,0-4.08,17.76,106.82,106.82,0,0,0-1.94,17.19c-.05,7.54.72,15.1,1.26,22.63.33,4.48.88,8.94,1.37,13.4q.25,2.27.72,4.5c.83,3.93,1.81,7.83,2.52,11.78a3,3,0,0,1-1.09,2.39c-4.2,3.2-8.48,6.3-12.78,9.37s-8.45,5.84-12.65,8.81c-5,3.56-10,7.18-15,10.75-2.39,1.69-4.81,3.33-7.35,5.09a16.47,16.47,0,0,0-.94-1.69c-3.8-5.19-7.47-10.48-11.46-15.52-4.51-5.7-9.27-11.21-14-16.74-1.38-1.61-3.05-3-4.48-4.55a2,2,0,0,1-.44-1.79,21.21,21.21,0,0,1,2.36-3.13c4.72-5.64,9.66-11.1,14.12-16.93,4.13-5.4,7.92-11.08,11.53-16.83a106.15,106.15,0,0,0,10.62-23c1.69-5.09,3-10.32,4.23-15.55.71-3,1-6.11,1.42-9.18.68-5,1.66-10,1.9-15a91.13,91.13,0,0,0-1.18-20.47,117.66,117.66,0,0,0-4.6-18.31A66.7,66.7,0,0,0,376.08,17.3,50.13,50.13,0,0,0,355.81,3.78,69,69,0,0,0,341,.23,49.23,49.23,0,0,0,322.22,2a50.28,50.28,0,0,0-18.64,9.81,57.06,57.06,0,0,0-15.73,21.4,60.33,60.33,0,0,0-4.7,15.31c-.55,3.9-1.84,7.78-1.88,11.67-.08,9.62-.81,19.29,1.2,28.85.71,3.38.7,6.91,1.47,10.26,1.39,6.13,2.86,12.27,4.77,18.25a159.58,159.58,0,0,0,6.73,17.66,146.8,146.8,0,0,0,8.91,16.58A90.78,90.78,0,0,0,314.13,165c4.52,5,9.65,9.4,14.55,14a22.62,22.62,0,0,0,2.78,1.94l-37.52,39.66c-1.54-1.11-2.6-1.86-3.65-2.63-4.69-3.41-9.35-6.88-14.08-10.23s-9.27-6.4-13.9-9.62c-5.17-3.6-10.29-7.26-15.49-10.82-2.59-1.78-2.93-2.4-2.37-5.63V181c.54-2.89,1.11-5.78,1.62-8.68.61-3.47,1.25-6.94,1.71-10.43.37-2.73.46-5.49.73-8.23.42-4.46,1.17-8.91,1.26-13.38.1-5.24-.26-10.49-.62-15.73A114.41,114.41,0,0,0,247.71,111a138.72,138.72,0,0,0-4.05-15.55,60.34,60.34,0,0,0-11.23-21.09C226.24,67.14,218.6,62.5,208.52,63a25.8,25.8,0,0,0-17.58,7.43,62.64,62.64,0,0,0-6.85,8.15c-4.39,6.15-6.41,13.31-7,20.64-.52,6.71-.84,13.59,1.19,20.22,1.78,5.82,3.18,11.8,5.56,17.37a95.91,95.91,0,0,0,18.43,28,316.51,316.51,0,0,0,23.48,22.11c2.57,2.23,3.85,3.8,2.64,7.19-1.48,4.19-2.31,8.6-3.69,12.82-2.28,7-4.73,13.94-7.18,20.88-1.31,3.7-2.76,7.35-4.05,10.75l-42.89-5.07c-2.05-5.9-3.85-11.58-6-17.13-3.66-9.52-7.25-19.09-11.41-28.39-3.21-7.16-7.09-14-11-20.86a86.06,86.06,0,0,0-8.09-11.76A117.29,117.29,0,0,0,123,143.55a56.65,56.65,0,0,0-10-7.27c-6.89-4-14.39-5.55-22.19-3.55A28.71,28.71,0,0,0,74.47,144c-5.72,7.72-7.62,16.52-8.37,25.74-.13,1.55.57,3.15.56,4.73,0,4.78,1.42,9.23,3.18,13.54,3.54,8.73,9.57,15.83,15.89,22.63a82.24,82.24,0,0,0,11,9.67,140.36,140.36,0,0,0,13.73,9,90.33,90.33,0,0,0,11.74,5.62,121.93,121.93,0,0,0,12.66,4.35c4.14,1.18,8.39,2,12.61,2.87,3.37.71,6.76,1.32,10.15,1.92,1.94.35,3.4.72,3.92,3.25.91,4.47,2.49,8.81,3.72,13.22.81,2.91,1.53,5.84,2.22,8.77.76,3.23,1.38,6.48,2.16,9.7,1,4.31,2.3,8.57,3.24,12.9,1,4.84,1.8,9.74,2.78,14.6,1.05,5.24,2.32,10.45,3.3,15.71,1,5.66,1.85,11.37,2.76,17,.25,1.57.49,3.14.77,4.7.62,3.37,1.49,6.72,1.85,10.12.37,3.63,1.24,4.76,4.88,5,3.86.22,7.71.51,11.55.68,5.92.26,11.84.65,17.76.62,9.3,0,18.62-.39,27.91-.61h.66l13-2c3.15-.48,6.33-.79,9.43-1.44,4.63-1,9.24-2.17,13.83-3.31,6.5-1.6,13-3.15,19.48-4.87,7.12-1.89,14.21-4,21.44-6,.12.72.27,1.33.36,1.9l-.87-15.5c-.28,1.13-1.08,1.59-2.57,1.7a25.7,25.7,0,0,0-4.4,1l-11.25,3-13.74,3.72c-3.82,1-7.63,2.06-11.47,3-3.63.9-7.26,1.79-10.94,2.51-4.39.85-8.81,1.57-13.23,2.24-2.22.34-4.47.45-6.7.69-4.1.43-8.2,1.25-12.3,1.25-10.71,0-21.41-.37-32.12-.56-3.05-.06-6.11,0-9.21,0-5.46-33.9-12.2-67.17-21.44-100.42,4.15.31,7.69.47,11.21.88,4.66.54,9.3,1.33,13.95,1.92,4.18.54,8.36.88,12.53,1.43,2.06.28,4.08.86,6.13,1.26,2.49.49,3.68-.28,4.5-2.6,1-2.83,2.18-5.61,3.24-8.43,2.32-6.25,4.81-12.44,6.87-18.77,2.48-7.62,4.57-15.35,6.89-23,.12-.41.63-.71,1-1.06,1.82,1.33,3.49,2.61,5.21,3.82,3.91,2.73,7.87,5.39,11.76,8.13,5.69,4,11.36,8,17,12.11,4.22,3,8.39,6.18,12.56,9.31,1.87,1.41,3.63,3,6.27,2.14a7,7,0,0,1,2.72-.51,5.06,5.06,0,0,0,4.45-1.83c5.64-5.9,11.3-11.75,17-17.63s11.1-11.52,16.64-17.29c.29-.31.51-.71.79-1,1.9-2.1,3.79-4.19,5.9-6.5a21.87,21.87,0,0,0,1.52,1.82,147.14,147.14,0,0,1,19.53,22.89c3.72,5.35,7.45,10.69,11.26,16,.79,1.11,1.81,2.42,3,2.81a43.75,43.75,0,0,0,7.19,1.32,1.75,1.75,0,0,0,1.15-.4c2.8-2.07,5.56-4.18,8.35-6.26,3.61-2.69,7.18-5.43,10.87-8,6.28-4.39,12.65-8.66,19-13,3.27-2.27,6.46-4.66,9.71-7,1-.7,1.89-.94,2.17.73a27.3,27.3,0,0,0,.78,3.36c1.53,5,3,10,4.67,14.92q3.38,10,7,19.84c1.53,4.11,3.5,8.07,4.93,12.22.56,1.63,1.3,2.16,2.79,2q5.16-.66,10.3-1.42c4.35-.63,8.69-1.4,13-1.94,3-.38,6.1-.43,9.15-.7,2.23-.2,4.46-.51,6.69-.78l6.52-.81c-6.78,25-12.48,49.51-16.78,74.32L496,323.3c.92-5.25,1.71-10.37,2.76-15.42,1.2-5.76,2.65-11.47,4-17.21,1.41-6.28,2.64-12.6,4.18-18.84,1.88-7.66,4-15.25,6-22.87,1.15-4.33,1.15-4.33,5.59-4.81H519c4.83-1.11,9.69-2.11,14.48-3.37a127.81,127.81,0,0,0,15.47-4.6c6.42-2.61,12.6-5.83,18.8-9,6.39-3.24,11.81-7.9,17-12.68a106.58,106.58,0,0,0,14.59-17.07c5.89-8.24,8.34-17.54,8.89-27.47A26.19,26.19,0,0,0,607.58,164.82ZM142,228.15A100.11,100.11,0,0,1,128.84,224a150.76,150.76,0,0,1-17.69-8.66,70.28,70.28,0,0,1-17.86-15,136.2,136.2,0,0,1-10.82-15,20.1,20.1,0,0,1-3.13-10.23c-.06-2.09-.68-4.19-.56-6.25.46-8.3,3-15.79,9.65-21.23,4.29-3.51,9.34-3.68,14.45-2a27.28,27.28,0,0,1,10.65,6.49,112.56,112.56,0,0,1,9.35,9.44,116.29,116.29,0,0,1,9.1,13.13c3.13,5.19,6,10.58,8.6,16,3,6.29,5.83,12.68,8.38,19.18,2.77,7,5.12,14.23,7.8,21.79C151.58,230.42,146.75,229.44,142,228.15Zm95.06-84.67c0,3.81-.82,7.61-1.26,11.42-.21,1.87-.39,3.75-.66,5.62-.67,4.63-1.36,9.26-2.1,13.88a8.32,8.32,0,0,1-1,2c-7.27-7.15-14.47-13.65-20.93-20.82a100.53,100.53,0,0,1-11.54-16.23A99,99,0,0,1,192,122.92c-1.38-3.8-1.61-8-2.32-12.06a21.32,21.32,0,0,1-.67-4.7c.33-6.22,1.23-12.38,4-18,2.68-5.4,6.55-9.85,12.31-12.11,4.08-1.6,8.11-.82,11.7,1.59,6.32,4.22,10.32,10.24,12.82,17.32,1.55,4.38,3.2,8.74,4.46,13.2.82,2.89.89,6,1.53,8.92,1.89,8.73,1.33,17.58,1.25,26.4ZM339.67,172c-3.77-3.26-7.5-6-10.65-9.32a118.91,118.91,0,0,1-16.44-21.5,141.68,141.68,0,0,1-11.12-24.56c-1.56-4.38-2.47-9-3.61-13.5-.91-3.6-1.81-7.2-2.58-10.83-.37-2-.64-4-.82-6-.47-4.18-1.08-8.34-1.26-12.53a88.06,88.06,0,0,1,.52-9.32c0-.44.08-.88.08-1.32-.07-7.61,1.9-14.8,4.34-21.92a46,46,0,0,1,14.44-20.38c4.63-3.86,10-6.75,16.14-7.4,4.42-.47,9-1,13.31-.54A37,37,0,0,1,359.55,20a51.11,51.11,0,0,1,20.23,27.46,55.6,55.6,0,0,1,3.47,17c.12,6,.75,12,.57,17.93a73.21,73.21,0,0,1-1.95,12.31c-1.24,6-2.45,12.07-4.1,18a87.85,87.85,0,0,1-10.62,23.53c-3.24,5.13-6.52,10.25-10,15.21-2.13,3-4.66,5.76-7.06,8.57-3.38,4-6.85,7.94-10.41,12Zm100.88-2q-1-5.72-1.93-11.44a52.57,52.57,0,0,1-.74-6c-.29-8.63-.76-17.26-.64-25.89a67.22,67.22,0,0,1,2-13c1.14-5.3,2.47-10.58,4.07-15.75a40.82,40.82,0,0,1,11.84-18.89,14.9,14.9,0,0,1,9.46-3.86,14.57,14.57,0,0,1,9.16,3.44,28.43,28.43,0,0,1,9.31,13.57,46.09,46.09,0,0,1,1.59,8.22,27.37,27.37,0,0,1,.61,6,69.36,69.36,0,0,1-3.65,18.81A89.62,89.62,0,0,1,470.88,146a104.34,104.34,0,0,1-9.73,11.86c-4.11,4.46-8.5,8.67-12.85,12.9-1.82,1.77-3.86,3.33-6.42,5.51C441.36,174,440.91,172,440.55,170Zm155,2.61a35.63,35.63,0,0,1-5.4,15.93,84.26,84.26,0,0,1-15,17.51A146.87,146.87,0,0,1,561,216.55c-8.12,5.48-17.37,8.48-26.64,11.29-4.59,1.39-9.41,2-14.15,2.9a5.91,5.91,0,0,1-1.38-.16c.79-2.66,1.36-5.16,2.27-7.54,3.06-8,6.1-16.1,9.44-24a161.66,161.66,0,0,1,8.15-17c3.54-6.25,7.51-12.29,11.64-18.17a91.23,91.23,0,0,1,8.53-9.9,32.13,32.13,0,0,1,12.41-8.28c5.29-1.94,10.44-1.47,15.15,2.24,4.15,3.27,6.2,7.72,7.81,12.48a28.39,28.39,0,0,1,1.3,12.24Z"/><path d="M688.8,735.3c-.22,3.14-.44,6.27-.67,9.41q-1.5,20.26-3,40.52a8.67,8.67,0,0,1-1.12,3.5c-14,24.48-34.61,40.76-61,50.06-21.51,7.57-43.63,9.91-66.28,8.4-17-1.13-33.55-4.31-49.32-10.88-29.79-12.42-52.4-33-68.51-60.85-9.06-15.63-15.12-32.48-19.28-50a218.49,218.49,0,0,1-5.07-69.05c1.94-23.13,7.79-45.17,19.22-65.53q29.46-52.49,86.41-72c23-7.91,46.53-10,70.53-7.26,36.34,4.12,67.1,19.64,91.65,46.71A166.33,166.33,0,0,1,720,628.15a180.26,180.26,0,0,1,5.84,47.15c-.13,53.81-.05,107.62-.05,161.43v2.83c-.94.06-1.71.15-2.5.16-7.43,0-14.87-.08-22.29,0-2.19,0-2.66-.69-2.66-2.75q.07-78.29,0-156.58c0-19.51-2.81-38.55-9.51-56.93-7.24-19.84-17.9-37.53-33.3-52.16a117.43,117.43,0,0,0-55.14-30,130.26,130.26,0,0,0-51.73-1.69c-43.16,7.42-73.31,32.06-92.38,70.88-8.72,17.76-13.28,36.69-14.61,56.43-1.67,25,1.4,49.34,11,72.64,9.52,23.08,23.89,42.48,44.19,57.24a117.17,117.17,0,0,0,53.78,21.85c24.64,3.36,48.69,1.25,71.43-9.32,27.89-13,48.1-33.86,61.21-61.64,1.91-4,3.46-8.26,5.17-12.39Z"/><path d="M256.44,814.51v19.33c0,5.09,0,5.09-5.1,5.09-53.21,0-106.42,0-159.63-.22-16.3-.08-32.46-1.91-48.15-6.66C22.2,825.59,9,811.43,3.77,789.76A140.69,140.69,0,0,1,0,756.29Q0,625.76,0,495.29V419.1c0-2.07.6-2.6,2.6-2.59q125.64.06,251.27,0c2.18,0,2.72.68,2.68,2.76-.13,6.48-.11,13,0,19.43,0,1.86-.56,2.35-2.37,2.34q-30.15-.07-60.28,0H29.57c-3.37,0-3.37,0-3.37,3.31V603.94c0,3.37,0,3.37,3.37,3.37H245.94c3.37,0,3.37,0,3.39,3.28v21c-1.21.06-2.28.16-3.34.16H29.83c-4.17,0-3.62-.33-3.62,3.69q0,60.51.07,121a79.92,79.92,0,0,0,4,25.62c4.6,13.6,14.17,22,27.58,26.38,13.86,4.57,28.18,6,42.64,6q76.27.16,152.57,0Z"/></g></g></svg>