<svg width="689" height="480" viewBox="0 0 689 480" fill="none" xmlns="http://www.w3.org/2000/svg">
<path d="M164.25 423.81L149.08 438.98" stroke="white" stroke-miterlimit="10"/>
<path d="M164.25 438.98L149.08 423.81" stroke="white" stroke-miterlimit="10"/>
<path d="M59.6998 398.73L44.5298 413.9" stroke="white" stroke-miterlimit="10"/>
<path d="M59.6998 413.9L44.5298 398.73" stroke="white" stroke-miterlimit="10"/>
<path d="M23.8124 394.361C25.1539 388.679 21.636 382.986 15.9548 381.645C10.2736 380.303 4.58053 383.821 3.23904 389.503C1.89755 395.184 5.41559 400.877 11.0968 402.218C16.778 403.56 22.471 400.042 23.8124 394.361Z" stroke="white" stroke-miterlimit="10" stroke-dasharray="5 5"/>
<path d="M128.8 442.73L93.7603 477.76" stroke="white" stroke-miterlimit="10"/>
<path d="M128.8 477.76L93.7603 442.73" stroke="white" stroke-miterlimit="10"/>
<path d="M15.74 524.07C44.3152 524.07 67.48 500.905 67.48 472.33C67.48 443.755 44.3152 420.59 15.74 420.59C-12.8352 420.59 -36 443.755 -36 472.33C-36 500.905 -12.8352 524.07 15.74 524.07Z" stroke="white" stroke-miterlimit="10" stroke-dasharray="5 5"/>
<path d="M633.67 163.176L618.5 178.346" stroke="white" stroke-miterlimit="10"/>
<path d="M633.67 178.346L618.5 163.176" stroke="white" stroke-miterlimit="10"/>
<path d="M469.04 52.9056L434 87.9456" stroke="white" stroke-miterlimit="10"/>
<path d="M469.04 87.9456L434 52.9056" stroke="white" stroke-miterlimit="10"/>
<path d="M670.172 153.925C680.229 149.818 685.053 138.335 680.945 128.277C676.838 118.22 665.355 113.397 655.297 117.504C645.24 121.612 640.417 133.095 644.524 143.152C648.632 153.209 660.114 158.033 670.172 153.925Z" stroke="white" stroke-miterlimit="10" stroke-dasharray="5 5"/>
<path d="M673.722 94.4155C699.974 83.1283 712.106 52.6968 700.818 26.4447C689.531 0.192661 659.1 -11.9387 632.847 -0.65153C606.595 10.6357 594.464 41.0673 605.751 67.3193C617.038 93.5713 647.47 105.703 673.722 94.4155Z" stroke="white" stroke-miterlimit="10" stroke-dasharray="5 5"/>
<path d="M634.328 37.1423C641.176 -5.57313 612.1 -45.7523 569.385 -52.6004C526.669 -59.4485 486.49 -30.3724 479.642 12.343C472.794 55.0584 501.87 95.2375 544.585 102.086C587.301 108.934 627.48 79.8576 634.328 37.1423Z" stroke="white" stroke-miterlimit="10" stroke-dasharray="5 5"/>
</svg>
