<svg width="42" height="42" viewBox="0 0 42 42" fill="none" xmlns="http://www.w3.org/2000/svg">
<g clip-path="url(#clip0_110_635)">
<path d="M27.5297 42C23.5594 42 19.95 40.1461 17.3496 36.7828L17.2266 36.6187H0.836719C0.377344 36.6187 0 36.2414 0 35.782V0.836719C0 0.377344 0.377344 0 0.836719 0H35.782C36.2414 0 36.6188 0.377344 36.6188 0.836719V17.8746L37.1438 17.7352C37.2176 17.7187 37.2914 17.7023 37.3652 17.7023C37.7098 17.7023 37.9313 17.932 37.9395 17.9402L41.7457 21.7465C41.9016 21.9023 41.9918 22.1156 41.9918 22.3371C41.9918 22.5586 41.9016 22.7719 41.7457 22.9277L39.9164 24.757L39.9902 24.9949C41.2781 29.1949 40.6465 33.3211 38.2266 36.6023C35.7656 39.9328 31.6723 42 27.5297 42ZM27.8414 17.7926C24.798 17.7926 21.8121 19.0477 19.6465 21.2379C17.5629 23.3379 16.4309 26.1187 16.4555 29.0637C16.4555 35.2652 21.5086 40.3184 27.7184 40.3184C27.7512 40.3184 27.7922 40.3184 27.8332 40.3184C31.1473 40.3184 34.2891 38.7926 36.4383 36.143C38.5957 33.4852 39.4406 30.0891 38.7516 26.8406L38.5957 26.0859L28.309 36.3727C28.1531 36.5285 27.9398 36.6187 27.7184 36.6187C27.4969 36.6187 27.2836 36.5285 27.1277 36.3727L20.4094 29.6543C20.0813 29.3262 20.0813 28.8012 20.4094 28.473L24.2074 24.675C24.3633 24.5191 24.5766 24.4289 24.798 24.4289C25.0195 24.4289 25.2328 24.5191 25.3887 24.675L27.7184 27.0047L34.5844 20.1387L34.1824 19.8516C32.3121 18.5063 30.1219 17.7926 27.8414 17.7926ZM1.67344 34.9453H16.1766L15.9141 34.3547C14.1012 30.2531 14.4375 25.807 16.8246 22.1402C19.2527 18.416 23.4363 16.1027 27.743 16.1027C30.0152 16.1027 32.2301 16.718 34.3137 17.9402L34.9453 18.3094V1.67344H23.182V7.55508C23.182 8.01445 22.8047 8.3918 22.3453 8.3918H14.2734C13.8141 8.3918 13.4367 8.01445 13.4367 7.55508V1.67344H1.67344V34.9453ZM22.1813 29.0637L27.7184 34.6008L39.9738 22.3453L37.357 19.7285L28.309 28.7684C28.1531 28.9242 27.9398 29.0145 27.7184 29.0145C27.4969 29.0145 27.2836 28.9242 27.1277 28.7684L24.798 26.4387L22.1813 29.0637ZM15.1102 6.71836H21.5004V1.67344H15.1102V6.71836V6.71836Z" fill="black"/>
</g>
<defs>
<clipPath id="clip0_110_635">
<rect width="42" height="42" fill="white"/>
</clipPath>
</defs>
</svg>
