<svg width="1435" height="1024" viewBox="0 0 1435 1024" fill="none" xmlns="http://www.w3.org/2000/svg">
<rect width="1435" height="1024" fill="url(#paint0_linear_67_505)"/>
<path d="M239.686 178.686L266.455 185.859L246.859 205.455L239.686 178.686Z" fill="#ED33B9"/>
<path d="M672.851 216.534L674.463 236.387L656.464 227.857L672.851 216.534Z" fill="#FFF129"/>
<path d="M504.109 818.703L528.052 823.097L512.274 841.635L504.109 818.703Z" fill="#FFF129"/>
<path d="M1365.24 72.595L1365.55 92.5112L1348.14 82.8204L1365.24 72.595Z" fill="#6898F7"/>
<path d="M920.657 935.613L921.132 966.274L894.342 951.355L920.657 935.613Z" fill="#6898F7"/>
<path d="M760.137 601.186L772.475 633.593L738.241 628.074L760.137 601.186Z" fill="#ED33B9"/>
<path d="M89.5694 749.179L68.1444 781.972L50.4576 747.021L89.5694 749.179Z" fill="#ED33B9"/>
<path d="M1040.54 134.55L1012.35 177.696L989.075 131.71L1040.54 134.55Z" fill="#23CE6B"/>
<path d="M605.057 849.821L645.864 848.375L626.713 884.438L605.057 849.821Z" fill="#23CE6B"/>
<path d="M923.709 290.486L948.31 303.7L924.566 318.398L923.709 290.486Z" fill="#ED33B9"/>
<path d="M322.394 907.224L289.788 948.519L270.329 899.634L322.394 907.224Z" fill="#6898F7"/>
<path d="M1107.9 394.041L1064.48 406.323L1075.56 362.58L1107.9 394.041Z" fill="#FFF129"/>
<path d="M432.865 647.888L423.19 675.698L403.944 653.414L432.865 647.888Z" fill="#ED33B9"/>
<path d="M1351.76 727.757L1322.29 736.35L1329.58 706.526L1351.76 727.757Z" fill="#FFF129"/>
<path d="M376.205 89.6298L383.042 124.09L349.78 112.782L376.205 89.6298Z" fill="#FFF129"/>
<path d="M545.633 60.1043L514.958 61.4304L529.147 34.2021L545.633 60.1043Z" fill="#23CE6B"/>
<path d="M384.368 495.368L403.608 500.524L389.523 514.608L384.368 495.368Z" fill="#6898F7"/>
<path d="M134.235 954.114L157.266 936.347L161.136 965.176L134.235 954.114Z" fill="#ED33B9"/>
<path d="M77.269 146.307L73.1697 167.983L56.4472 153.595L77.269 146.307Z" fill="#23CE6B"/>
<path d="M293.601 401.913L326.946 421.864L292.995 440.765L293.601 401.913Z" fill="#6898F7"/>
<path d="M786.249 365.777L820.522 370.487L799.306 397.813L786.249 365.777Z" fill="#6898F7"/>
<path d="M1239.6 632.814L1256.76 668.835L1216.98 665.693L1239.6 632.814Z" fill="#6898F7"/>
<path d="M1361.6 940.831L1389.52 975.92L1345.18 982.555L1361.6 940.831Z" fill="#23CE6B"/>
<circle cx="365.657" cy="294.657" r="10.6574" fill="#FFF129"/>
<circle cx="554.657" cy="373.657" r="7.65738" fill="#23CE6B"/>
<circle cx="1058.5" cy="895.5" r="13.5" fill="#ED33B9"/>
<circle cx="1375" cy="356" r="10" fill="#23CE6B"/>
<circle cx="158.5" cy="301.5" r="6.5" fill="#6898F7"/>
<circle cx="1080.5" cy="715.5" r="8.5" fill="#6898F7"/>
<circle cx="1179" cy="106" r="12" fill="#ED33B9"/>
<circle cx="727" cy="925" r="7" fill="#FFF129"/>
<circle cx="904.5" cy="690.5" r="5.5" fill="#FFF129"/>
<circle cx="1230.5" cy="457.5" r="5.5" fill="#6898F7"/>
<circle cx="328.5" cy="608.5" r="5.5" fill="#23CE6B"/>
<circle cx="239.5" cy="756.5" r="7.5" fill="#FFF129"/>
<circle cx="783" cy="135" r="9" fill="#6898F7"/>
<circle cx="1096" cy="571" r="6" fill="#ED33B9"/>
<circle cx="90" cy="448" r="10" fill="#ED33B9"/>
<path fill-rule="evenodd" clip-rule="evenodd" d="M489.093 151.795L505.887 135L512.185 141.298L495.391 158.093L489.093 151.795ZM483.844 192.732L500.639 175.937L482.795 158.093L489.093 151.795L513.235 175.937L506.937 182.235L490.142 199.03L483.844 192.732Z" fill="white"/>
<path fill-rule="evenodd" clip-rule="evenodd" d="M586.179 649.354L603.494 665.612L597.397 672.105L580.082 655.848L586.179 649.354ZM545.097 645.397L562.412 661.655L579.686 643.258L586.179 649.354L562.808 674.245L556.315 668.148L539 651.89L545.097 645.397Z" fill="white"/>
<path fill-rule="evenodd" clip-rule="evenodd" d="M1255.44 901.339L1243.59 921.922L1235.87 917.477L1247.72 896.894L1255.44 901.339ZM1249.87 860.445L1238.02 881.027L1259.88 893.621L1255.44 901.339L1225.85 884.301L1230.3 876.583L1242.15 856L1249.87 860.445Z" fill="white"/>
<path fill-rule="evenodd" clip-rule="evenodd" d="M649.876 439.64L638 419.071L645.713 414.618L657.589 435.187L649.876 439.64ZM688.059 455.305L676.184 434.736L654.329 447.354L649.876 439.64L679.444 422.569L683.897 430.283L695.773 450.852L688.059 455.305Z" fill="white"/>
<path fill-rule="evenodd" clip-rule="evenodd" d="M409.1 903.751L409.172 880L418.079 880.027L418.006 903.778L409.1 903.751ZM434.236 936.486L434.308 912.735L409.072 912.658L409.1 903.751L443.242 903.855L443.215 912.762L443.142 936.513L434.236 936.486Z" fill="white"/>
<path fill-rule="evenodd" clip-rule="evenodd" d="M1287.13 246.382L1280.98 269.324L1272.38 267.019L1278.52 244.077L1287.13 246.382ZM1271.2 208.305L1265.06 231.247L1289.43 237.779L1287.13 246.382L1254.15 237.545L1256.45 228.942L1262.6 206L1271.2 208.305Z" fill="white"/>
<path fill-rule="evenodd" clip-rule="evenodd" d="M867.706 798.232L891.15 802.036L889.723 810.828L866.279 807.023L867.706 798.232ZM831.427 817.91L854.871 821.715L858.914 796.805L867.706 798.232L862.236 831.933L853.444 830.506L830 826.702L831.427 817.91Z" fill="white"/>
<path fill-rule="evenodd" clip-rule="evenodd" d="M161.64 643.897L141.071 655.773L136.618 648.06L157.187 636.184L161.64 643.897ZM177.305 605.714L156.736 617.589L169.354 639.444L161.64 643.897L144.569 614.329L152.282 609.876L172.852 598L177.305 605.714Z" fill="white"/>
<path fill-rule="evenodd" clip-rule="evenodd" d="M185.895 101.836L165.076 90.4048L169.362 82.5974L190.182 94.0283L185.895 101.836ZM226.668 95.4323L205.848 84.0014L193.703 106.122L185.895 101.836L202.327 71.9074L210.135 76.194L230.954 87.625L226.668 95.4323Z" fill="white"/>
<path fill-rule="evenodd" clip-rule="evenodd" d="M926.144 546.37L903.876 554.632L900.778 546.281L923.046 538.02L926.144 546.37ZM947.985 511.351L925.717 519.612L934.495 543.272L926.144 546.37L914.268 514.36L922.619 511.262L944.887 503L947.985 511.351Z" fill="white"/>
<path fill-rule="evenodd" clip-rule="evenodd" d="M913.838 98.2516L890.827 92.3679L893.033 83.7388L916.044 89.6225L913.838 98.2516ZM951.73 81.8926L928.719 76.0089L922.467 100.458L913.838 98.2516L922.296 65.1733L930.925 67.3798L953.936 73.2635L951.73 81.8926Z" fill="white"/>
<path fill-rule="evenodd" clip-rule="evenodd" d="M1343.22 548.931L1331 528.563L1338.64 523.982L1350.86 544.349L1343.22 548.931ZM1381.66 563.955L1369.44 543.587L1347.8 556.569L1343.22 548.931L1372.5 531.368L1377.08 539.006L1389.3 559.373L1381.66 563.955Z" fill="white"/>
<defs>
<linearGradient id="paint0_linear_67_505" x1="332.184" y1="1269.88" x2="1558.55" y2="474.222" gradientUnits="userSpaceOnUse">
<stop stop-color="#50C9C3"/>
<stop offset="1" stop-color="#96DEDA"/>
</linearGradient>
</defs>
</svg>
