<svg width="1438" height="234" viewBox="0 0 1438 234" fill="none" xmlns="http://www.w3.org/2000/svg">
<path d="M809.571 0H823.534C829.873 1.62557 836.548 2.20129 842.468 5.0799C853.22 10.3291 863.413 17.2378 874.025 22.8595C884.051 28.1765 894.02 34.7126 904.577 37.151C915.949 40.0671 927.686 40.2217 939.108 37.606C950.531 34.9903 961.413 29.656 971.125 21.9113C983.916 11.7515 997.404 3.55593 1013.02 2.09969C1014.65 1.67032 1016.23 0.963485 1017.71 0H1033.74C1034.92 1.01886 1036.25 1.78607 1037.65 2.26902C1049.26 3.92246 1060.43 8.65104 1070.38 16.1202C1077.33 20.9292 1083.92 26.8557 1091.27 30.3439C1119.19 43.5855 1147.12 43.0775 1173.54 24.4174C1187.83 14.2576 1201.74 3.4882 1218.92 2.09969C1219.92 2.09969 1220.84 0.711186 1221.71 0H1239.72C1241.11 0.99136 1242.59 1.7652 1244.13 2.30289C1254.26 3.77227 1264.04 7.67526 1272.9 13.7835C1280.77 19.4391 1288.4 25.9752 1296.83 30.0391C1325.71 43.958 1354 43.1791 1381.09 22.8595C1395.5 12.1918 1410.32 3.3866 1427.5 1.55784C1437.13 0.541856 1438 0.812782 1438 12.2595V234H-2V0H5.00954C6.71843 1.07353 8.5282 1.89227 10.3993 2.43835C22.2054 4.06301 33.5118 9.12912 43.3526 17.2039C61.7561 32.1388 81.3326 40.6392 103.841 39.0136C120.002 38.0242 135.663 31.8921 149.25 21.234C161.342 11.9886 173.937 3.69139 188.738 2.30289C188.738 2.30289 191.781 1.02709 193.15 0H211.135C211.135 0 213.515 1.4446 214.793 1.8965C230.488 4.53804 243.948 13.5464 257.437 22.9273C289.161 45.3127 321.249 45.3804 352.973 22.5547C366.35 12.9029 379.838 3.89459 395.757 2.23515C397.026 1.73936 398.216 0.983363 399.275 0H417.288C418.936 0.812784 420.499 1.82876 422.203 2.43835C429.352 4.9783 436.781 6.73933 443.678 10.0921C450.461 13.4936 456.945 17.7142 463.031 22.6902C478.977 35.4916 496.543 39.6232 515.366 38.9459C531.253 38.3365 546.702 32.4819 560.048 22.0129C571.498 13.2755 583.339 5.41856 597.134 3.285C599.661 2.5367 602.107 1.43428 604.423 0H623.553C625.272 1.04462 627.079 1.8621 628.943 2.43835C639.743 4.12398 650.106 8.6676 659.299 15.7477C678.847 31.9018 700.043 41.1133 724.088 38.8104C737.465 37.8896 750.445 32.9681 761.872 24.4851C775.668 13.9528 789.799 4.47031 806.276 2.20129C807.466 1.69063 808.579 0.947026 809.571 0Z" fill="#F3F3FF"/>
</svg>
