<svg width="205" height="156" viewBox="0 0 205 156" fill="none" xmlns="http://www.w3.org/2000/svg">
<path d="M78.4611 98.4317C80.8125 100.066 83.2787 101.772 85.5584 103.35C86.9062 104.267 88.1393 105.099 89.1142 105.744C89.5587 106.16 90.2613 106.633 90.7631 107.02C90.4907 106.791 90.6341 106.805 90.8491 106.963C92.4263 108.081 90.9925 106.977 92.6127 108.067C93.516 108.64 95.5664 110.088 97.631 111.565C100.542 113.659 103.495 115.781 104.9 116.784C105.001 116.455 105.044 116.254 105.101 116.096C105.302 115.064 105.574 114.031 105.832 113.013C105.961 112.497 106.105 111.995 106.234 111.494C106.277 111.293 106.334 111.092 106.377 110.906C106.406 110.762 106.435 110.633 106.463 110.504V110.619C106.707 109.515 108.471 103.378 108.757 102.102L108.7 102.274C108.915 101.142 109.015 101.342 109.288 100.482C109.116 100.554 109.273 99.593 109.36 99.2202L109.388 99.2489C109.503 98.7041 109.704 97.428 109.919 96.5247L109.99 96.5821C110.105 95.8078 110.507 94.4027 110.65 93.8722C111.008 92.6534 111.654 90.7895 111.983 89.112L112.5 88.1083L112.514 87.9505L113.03 84.237C113.13 83.3911 109.603 85.3554 109.56 85.255C109.818 85.1547 110.076 85.0399 110.148 85.0399C110.062 85.0256 109.56 85.212 109.302 85.3554V85.4844C108.7 85.7855 109.13 85.4844 108.542 85.7425C108.471 85.6708 109.015 85.4127 109.489 85.1977C109.044 85.3697 108.585 85.4844 108.456 85.6565C108.026 85.7999 108.456 85.5275 107.954 85.6995C107.61 85.8716 107.194 86.1583 106.764 86.273V86.2587C105.746 86.5741 105.316 87.033 104.384 87.3197L104.47 87.248C104.14 87.334 103.538 87.6638 102.936 87.8502C103.108 87.7929 103.28 87.8072 102.936 87.9649C102.262 88.18 101.832 88.4381 101.316 88.5671L100.886 88.8538C98.5917 89.8002 89.6161 93.7431 87.322 94.7324L87.408 94.6751C85.1713 95.564 81.9452 96.9405 78.4611 98.4317Z" fill="#9E887C" fill-opacity="0.43"/>
<path d="M71.5932 69.6983C73.9303 68.0351 76.3677 66.3001 78.6331 64.6943C79.9522 63.748 81.1566 62.859 82.0886 62.1565C82.6334 61.884 83.3073 61.3822 83.8378 61.0381C83.5224 61.2101 83.5941 61.0811 83.8092 60.9234C85.4007 59.8194 83.8808 60.7943 85.458 59.6473C86.304 59.0021 88.3543 57.554 90.4477 56.1202C93.4013 54.0985 96.3979 52.0338 97.8174 51.0588C97.545 50.8581 97.3729 50.7434 97.2295 50.643C96.3262 50.0982 95.4516 49.5103 94.577 48.8938C94.1469 48.5927 93.7024 48.2916 93.2866 48.0048C93.1145 47.8901 92.9425 47.7754 92.7848 47.6607C92.67 47.5891 92.5553 47.5173 92.4406 47.4456L92.541 47.4743C91.5804 46.8721 86.4043 43.1299 85.3003 42.413L85.4293 42.5277C84.44 41.9399 84.6551 41.9112 83.9382 41.3663C83.9525 41.5527 83.0923 41.0652 82.7768 40.8645L82.8055 40.8502C82.3323 40.5491 81.1996 39.9326 80.4254 39.4164L80.4971 39.359C79.8088 38.9862 78.6331 38.1259 78.16 37.8248C77.1276 37.0649 75.5935 35.8318 74.131 34.9429L73.3567 34.1113L73.2134 34.0396L69.8869 32.2904C69.127 31.9033 69.7722 35.8892 69.6719 35.9036C69.6575 35.6311 69.6432 35.3587 69.6575 35.2727C69.6145 35.3444 69.6145 35.8892 69.6575 36.176L69.7722 36.219C69.8439 36.8785 69.7149 36.3767 69.7579 37.0219C69.6575 37.0649 69.6145 36.4627 69.5715 35.9466C69.5858 36.4197 69.5428 36.8929 69.6575 37.0793C69.6432 37.5238 69.5428 37.0363 69.5285 37.5668C69.5715 37.9396 69.7005 38.4414 69.6575 38.8858L69.6432 38.8715C69.6002 39.9469 69.8726 40.4917 69.8296 41.4667L69.7866 41.3663C69.7436 41.7104 69.8583 42.3843 69.8296 43.0152C69.8439 42.8431 69.9013 42.6855 69.93 43.0439C69.9013 43.7608 69.9873 44.2483 69.9443 44.7644L70.059 45.2519C70.1737 47.7324 70.8189 57.5253 70.9766 60.0058L70.9623 59.9054C71.1774 62.4002 71.3781 65.913 71.5932 69.6983Z" fill="#9E887C" fill-opacity="0.43"/>
<path d="M31.3033 1.89377C32.2066 3.04081 33.1529 4.25953 34.0275 5.3779C34.5437 6.02311 35.0169 6.62531 35.404 7.08413C35.5617 7.35655 35.8341 7.68634 36.0205 7.95877C35.9202 7.80105 35.9918 7.82971 36.0779 7.94441C36.6801 8.73301 36.1496 7.97309 36.7661 8.74734C37.1102 9.16314 37.8988 10.1811 38.6874 11.2135C39.7914 12.676 40.9098 14.1528 41.4403 14.8553C41.5407 14.712 41.598 14.626 41.641 14.5543C41.8991 14.0811 42.1859 13.6223 42.4726 13.1635C42.616 12.9341 42.7594 12.7046 42.9028 12.4752C42.9601 12.3892 43.0175 12.3032 43.0605 12.2028C43.0892 12.1455 43.1322 12.0738 43.1609 12.0164L43.1465 12.0738C43.4333 11.5719 45.2255 8.84771 45.5553 8.25985L45.498 8.33152C45.7704 7.81536 45.799 7.91574 46.0571 7.54295C45.9568 7.55729 46.1862 7.09845 46.2865 6.94074L46.3009 6.95509C46.4443 6.697 46.731 6.10915 46.9748 5.70769L47.0034 5.7507C47.1755 5.39225 47.5913 4.77574 47.7347 4.51765C48.0931 3.97281 48.6953 3.16986 49.1111 2.39561L49.5126 1.9798L49.5413 1.90812L50.3585 0.173191C50.5449 -0.228273 48.5233 0.201883 48.5089 0.144531C48.6523 0.130193 48.7957 0.115841 48.8387 0.130179C48.7957 0.101503 48.5233 0.115869 48.3799 0.158883L48.3656 0.216247C48.0358 0.273599 48.2795 0.187542 47.9497 0.230556C47.9211 0.187542 48.2365 0.144547 48.4946 0.115871C48.2509 0.130209 48.0071 0.115853 47.9211 0.187543C47.6917 0.187543 47.9354 0.130179 47.663 0.130179C47.4766 0.158855 47.2185 0.230556 46.9891 0.230556V0.216247C46.4443 0.216247 46.1718 0.373945 45.67 0.373945L45.7274 0.345284C45.5553 0.330946 45.2112 0.402605 44.8958 0.402605C44.9818 0.402605 45.0678 0.431293 44.8814 0.459969C44.5086 0.459969 44.2649 0.517319 44.0068 0.502981L43.7631 0.574698C42.5013 0.689402 37.526 1.24855 36.2499 1.39193L36.2929 1.37762C35.0169 1.521 33.2389 1.70738 31.3033 1.89377Z" fill="#9E887C" fill-opacity="0.43"/>
<path d="M191.717 80.0074C192.893 79.1328 194.126 78.2152 195.259 77.3692C195.918 76.8674 196.535 76.4085 196.993 76.0358C197.266 75.8924 197.61 75.6343 197.882 75.4479C197.725 75.5339 197.753 75.4766 197.868 75.3906C198.671 74.817 197.897 75.3189 198.7 74.7167C199.13 74.3726 200.162 73.6126 201.209 72.8527C202.7 71.7774 204.206 70.702 204.922 70.1859C204.779 70.0855 204.693 70.0282 204.621 69.9708C204.148 69.6984 203.704 69.4116 203.245 69.1105C203.015 68.9671 202.786 68.8094 202.571 68.666C202.485 68.6087 202.399 68.5513 202.313 68.494C202.256 68.4653 202.198 68.4223 202.126 68.3936L202.184 68.408C201.682 68.1069 199.001 66.2572 198.427 65.9131L198.499 65.9705C197.983 65.6837 198.098 65.6694 197.725 65.397C197.739 65.4973 197.295 65.2536 197.123 65.1532L197.137 65.1389C196.893 64.9955 196.305 64.6944 195.904 64.4363L195.947 64.4076C195.588 64.2212 194.986 63.8054 194.742 63.6477C194.212 63.2749 193.409 62.6584 192.649 62.2283L192.248 61.8125L192.176 61.7838L190.455 60.9235C190.054 60.7371 190.441 62.7588 190.384 62.7731C190.369 62.6297 190.369 62.4864 190.369 62.4433C190.341 62.4864 190.355 62.7587 190.384 62.9021L190.441 62.9165C190.484 63.2463 190.412 63.0025 190.441 63.3323C190.398 63.3466 190.355 63.0455 190.341 62.7874C190.355 63.0312 190.341 63.2749 190.398 63.361C190.398 63.5904 190.341 63.3466 190.341 63.619C190.369 63.8054 190.441 64.0635 190.427 64.2929H190.412C190.398 64.8378 190.556 65.1102 190.541 65.612L190.527 65.5547C190.513 65.7267 190.57 66.0709 190.57 66.3863C190.57 66.3003 190.599 66.2142 190.627 66.4006C190.627 66.7734 190.67 67.0172 190.656 67.2752L190.728 67.519C190.814 68.7807 191.258 73.7703 191.359 75.0464L191.344 75.0034C191.43 76.2938 191.574 78.0861 191.717 80.0074Z" fill="#9E887C" fill-opacity="0.43"/>
<path d="M69.0123 168.674C71.7796 169.405 74.6759 170.165 77.3571 170.882C78.9342 171.283 80.3824 171.656 81.5151 171.914C82.0743 172.158 82.8915 172.358 83.4937 172.545C83.164 172.416 83.293 172.387 83.5654 172.459C85.4293 172.975 83.7088 172.43 85.6014 172.903C86.6481 173.147 89.0569 173.792 91.5087 174.48C94.9641 175.455 98.4626 176.43 100.111 176.904C100.083 176.559 100.068 176.359 100.054 176.187C99.8964 175.14 99.796 174.093 99.6957 173.032C99.6527 172.502 99.5953 171.971 99.5523 171.47C99.538 171.269 99.5093 171.068 99.4949 170.867C99.4806 170.738 99.4519 170.595 99.4376 170.466L99.4806 170.566C99.3229 169.448 98.8927 163.067 98.735 161.777V161.949C98.5486 160.816 98.7064 160.96 98.6777 160.056C98.5343 160.185 98.3622 159.225 98.3192 158.852L98.3479 158.866C98.2762 158.307 98.0325 157.045 97.9178 156.128L98.0038 156.157C97.8461 155.397 97.76 153.934 97.6884 153.375C97.6167 152.099 97.588 150.135 97.3156 148.443L97.4589 147.324L97.4159 147.167L96.6417 143.496C96.4553 142.664 93.8028 145.718 93.7311 145.647C93.9318 145.46 94.1325 145.274 94.2186 145.231C94.1325 145.245 93.7167 145.589 93.5303 145.804L93.5734 145.919C93.1145 146.407 93.4156 145.976 92.9425 146.421C92.8565 146.378 93.2723 145.948 93.6594 145.589C93.3009 145.905 92.9138 146.177 92.8421 146.378C92.4837 146.65 92.7991 146.263 92.3833 146.593C92.1252 146.88 91.8241 147.281 91.4657 147.539V147.525C90.6197 148.17 90.376 148.744 89.5874 149.332L89.6447 149.231C89.358 149.418 88.9135 149.934 88.4117 150.321C88.555 150.221 88.7128 150.163 88.4547 150.421C87.8955 150.866 87.5801 151.239 87.1356 151.54L86.8345 151.955C84.9992 153.633 77.9019 160.401 76.081 162.107L76.1383 162.035C74.3461 163.684 71.7796 166.078 69.0123 168.674Z" fill="#9E887C" fill-opacity="0.43"/>
<path d="M131.856 105.142C133.777 107.264 135.784 109.501 137.634 111.565C138.738 112.77 139.742 113.859 140.545 114.705C140.889 115.221 141.448 115.838 141.849 116.325C141.649 116.039 141.778 116.082 141.95 116.297C143.226 117.745 142.079 116.354 143.412 117.788C144.158 118.562 145.821 120.426 147.499 122.333C149.85 125.043 152.245 127.782 153.377 129.072C153.549 128.771 153.635 128.599 153.721 128.441C154.151 127.48 154.653 126.548 155.155 125.602C155.399 125.129 155.657 124.67 155.886 124.211C155.987 124.025 156.073 123.853 156.159 123.666C156.216 123.537 156.273 123.423 156.331 123.294L156.317 123.408C156.804 122.39 159.93 116.813 160.503 115.637L160.403 115.781C160.862 114.734 160.919 114.935 161.392 114.175C161.206 114.203 161.579 113.3 161.751 112.97L161.779 112.999C162.023 112.497 162.511 111.307 162.926 110.475L162.984 110.547C163.27 109.816 163.987 108.554 164.245 108.052C164.876 106.948 165.937 105.285 166.64 103.722L167.371 102.862L167.428 102.704L168.791 99.2058C169.092 98.4029 165.192 99.5069 165.177 99.4066C165.45 99.3636 165.722 99.3205 165.808 99.3205C165.737 99.2775 165.192 99.3492 164.919 99.4209L164.891 99.55C164.245 99.7077 164.733 99.5069 164.088 99.6216C164.03 99.5356 164.618 99.4066 165.134 99.3205C164.676 99.3922 164.188 99.3922 164.016 99.5356C163.572 99.5643 164.045 99.4065 163.514 99.4639C163.141 99.5499 162.668 99.7363 162.224 99.7507V99.7363C161.163 99.8223 160.647 100.152 159.672 100.224L159.772 100.181C159.428 100.181 158.768 100.367 158.152 100.41C158.324 100.396 158.496 100.439 158.123 100.511C157.406 100.568 156.947 100.711 156.417 100.726L155.944 100.898C153.492 101.299 143.842 103.063 141.391 103.493L141.477 103.464C139.054 103.894 135.598 104.497 131.856 105.142Z" fill="#9E887C" fill-opacity="0.43"/>
<path d="M118.048 67.3755C120.844 67.992 123.769 68.6372 126.479 69.2394C128.071 69.5835 129.533 69.8846 130.68 70.0997C131.254 70.3291 132.071 70.4868 132.687 70.6588C132.358 70.5441 132.487 70.5011 132.759 70.5728C134.637 71.0029 132.902 70.5441 134.809 70.9312C135.856 71.132 138.308 71.6769 140.774 72.2647C144.258 73.0963 147.8 73.9279 149.477 74.3294C149.434 73.9852 149.42 73.7845 149.391 73.6125C149.19 72.5801 149.047 71.5335 148.904 70.4725C148.832 69.942 148.76 69.4258 148.703 68.9096C148.674 68.7089 148.646 68.5081 148.617 68.3074C148.588 68.164 148.56 68.035 148.545 67.906L148.588 68.0063C148.388 66.888 147.699 60.5362 147.484 59.2458V59.4178C147.255 58.2995 147.427 58.4285 147.355 57.5252C147.212 57.6686 146.997 56.708 146.939 56.3352L146.982 56.3495C146.882 55.7903 146.581 54.5429 146.452 53.6253L146.538 53.654C146.352 52.894 146.194 51.4459 146.122 50.8867C145.993 49.625 145.878 47.6463 145.549 45.9688L145.649 44.8504L145.606 44.6927L144.674 41.0508C144.445 40.2192 141.921 43.388 141.849 43.3163C142.05 43.1155 142.251 42.9291 142.308 42.8861C142.222 42.9004 141.821 43.2732 141.634 43.4883L141.677 43.603C141.233 44.1048 141.52 43.6603 141.075 44.1335C140.989 44.0905 141.391 43.646 141.749 43.2733C141.405 43.603 141.032 43.8898 140.96 44.0905C140.616 44.3772 140.917 43.9758 140.502 44.3199C140.258 44.6067 139.971 45.0368 139.613 45.2949V45.2806C138.795 45.9688 138.566 46.5423 137.806 47.1588L137.863 47.0585C137.577 47.2592 137.161 47.7897 136.673 48.1912C136.817 48.0765 136.974 48.0191 136.716 48.2916C136.172 48.7504 135.87 49.1375 135.455 49.4672L135.168 49.8831C133.404 51.6323 126.579 58.6866 124.845 60.4645L124.902 60.3785C123.167 62.1707 120.701 64.6656 118.048 67.3755Z" fill="#9E887C" fill-opacity="0.43"/>
<path d="M37.6981 134.549C40.5514 134.807 43.5337 135.094 46.3009 135.352C47.9211 135.496 49.4123 135.61 50.5737 135.682C51.1758 135.825 52.0075 135.897 52.6383 135.983C52.2942 135.911 52.4232 135.854 52.6957 135.883C54.617 136.083 52.8391 135.825 54.7747 135.983C55.8357 136.04 58.3305 136.284 60.854 136.556C64.4242 136.944 68.0373 137.331 69.7436 137.531C69.6575 137.202 69.6145 137.001 69.5715 136.829C69.2417 135.825 68.9693 134.807 68.6969 133.775C68.5535 133.259 68.4245 132.757 68.2954 132.255C68.2381 132.054 68.1807 131.868 68.1234 131.667C68.0804 131.538 68.0373 131.409 67.9943 131.28L68.0517 131.38C67.7219 130.305 66.2308 124.082 65.858 122.835L65.8867 123.007C65.5139 121.917 65.7003 122.032 65.5139 121.157C65.3992 121.315 65.0694 120.383 64.9547 120.025H64.9977C64.8256 119.48 64.3812 118.29 64.1231 117.387L64.2091 117.401C63.9223 116.67 63.5926 115.25 63.4492 114.705C63.1624 113.458 62.804 111.522 62.2735 109.902L62.2305 108.769L62.1731 108.612L60.7967 105.128C60.4669 104.339 58.3592 107.794 58.2875 107.723C58.4596 107.508 58.6316 107.293 58.689 107.235C58.6029 107.264 58.2588 107.68 58.1011 107.924L58.1585 108.038C57.7857 108.597 58.0151 108.124 57.6136 108.64C57.5133 108.612 57.8574 108.124 58.1728 107.708C57.8717 108.081 57.5276 108.411 57.4989 108.626C57.1978 108.956 57.4415 108.511 57.0831 108.913C56.868 109.228 56.6386 109.687 56.3232 110.003L56.3089 109.988C55.5776 110.762 55.4342 111.365 54.7603 112.081L54.8034 111.981C54.5453 112.225 54.2012 112.798 53.771 113.257C53.9001 113.128 54.0435 113.057 53.8284 113.358C53.3409 113.888 53.0971 114.304 52.7244 114.677L52.4949 115.135C50.9608 117.085 45.0822 124.943 43.5624 126.921L43.6054 126.835C42.1286 128.742 39.9922 131.538 37.6981 134.549Z" fill="#9E887C" fill-opacity="0.43"/>
<path d="M37.4544 99.8798C35.9202 97.471 34.3 94.9332 32.8088 92.5961C31.9199 91.234 31.1026 89.9722 30.4574 89.0116C30.2137 88.4524 29.7548 87.7498 29.4251 87.205C29.5828 87.5204 29.4537 87.4631 29.3104 87.2193C28.2924 85.5848 29.1813 87.1476 28.106 85.5131C27.5038 84.6241 26.1703 82.5164 24.8226 80.3514C22.9443 77.2974 21.0373 74.2004 20.134 72.7379C19.919 73.0103 19.7899 73.168 19.6896 73.2971C19.1017 74.1717 18.4565 75.0176 17.8113 75.8636C17.4958 76.2794 17.1661 76.7095 16.8506 77.111C16.7216 77.283 16.6069 77.4408 16.4922 77.5985C16.4062 77.7132 16.3345 77.8279 16.2628 77.9426L16.3058 77.8422C15.6606 78.7742 11.6603 83.7495 10.9004 84.8105L11.0294 84.6815C10.3985 85.6421 10.3699 85.427 9.782 86.1153C9.96839 86.1153 9.45222 86.9469 9.22282 87.248L9.20848 87.2193C8.8787 87.6781 8.20481 88.7678 7.65997 89.5277L7.61695 89.4417C7.21549 90.1156 6.29786 91.2483 5.96808 91.6928C5.16515 92.6821 3.84605 94.1446 2.88541 95.5641L2.02513 96.2953L1.95344 96.4387L0.0321442 99.6647C-0.397996 100.41 3.63099 99.9658 3.63099 100.066C3.35857 100.066 3.08614 100.066 3.00011 100.038C3.0718 100.081 3.61664 100.109 3.9034 100.081L3.94643 99.9658C4.60598 99.9228 4.10414 100.037 4.74935 100.023C4.77803 100.124 4.19017 100.138 3.65966 100.152C4.13281 100.167 4.60597 100.238 4.79236 100.124C5.23684 100.167 4.73502 100.238 5.27986 100.281C5.65265 100.253 6.15448 100.152 6.59896 100.21L6.58462 100.224C7.64563 100.324 8.21915 100.066 9.17979 100.167L9.07943 100.195C9.42354 100.253 10.0974 100.167 10.714 100.238C10.5419 100.224 10.3842 100.152 10.757 100.138C11.4739 100.195 11.9614 100.138 12.4775 100.21L12.9794 100.109C15.4598 100.124 25.2671 99.9658 27.7619 99.9371L27.6615 99.9515C30.142 99.9371 33.6691 99.9084 37.4544 99.8798Z" fill="#9E887C" fill-opacity="0.43"/>
</svg>
