<svg width="20" height="20" viewBox="0 0 20 20" fill="none" xmlns="http://www.w3.org/2000/svg">
<path fill-rule="evenodd" clip-rule="evenodd" d="M0.18418 19.3314C0.102363 19.6284 0.372852 19.9025 0.6709 19.8247L5.27824 18.6213C6.7326 19.409 8.37 19.8275 10.0371 19.8275H10.0421C15.5281 19.8275 20 15.3815 20 9.91626C20 7.26735 18.966 4.77594 17.0863 2.90491C15.2065 1.03397 12.7084 0 10.042 0C4.55607 0 0.0841071 4.44605 0.0841071 9.91136C0.0834837 11.65 0.542402 13.3582 1.41479 14.8645L0.18418 19.3314ZM6.88597 5.16985C7.06893 5.17475 7.27177 5.18465 7.46475 5.61303C7.59273 5.89821 7.8083 6.4232 7.98392 6.85087C8.12057 7.18366 8.23302 7.45751 8.26116 7.51356C8.32546 7.64156 8.36504 7.78926 8.28095 7.96156C8.27103 7.98188 8.26167 8.00131 8.25265 8.02003C8.18519 8.16003 8.13719 8.25965 8.02375 8.38994C7.9771 8.44348 7.92851 8.50219 7.8801 8.56069C7.79496 8.66358 7.71037 8.7658 7.63786 8.83802C7.50926 8.96593 7.37565 9.10391 7.52404 9.35991C7.67252 9.6159 8.19193 10.4579 8.95869 11.1373C9.78302 11.8712 10.4998 12.1805 10.8622 12.3368C10.9325 12.3672 10.9895 12.3918 11.0313 12.4126C11.2886 12.5406 11.4419 12.5209 11.5903 12.3486C11.7388 12.1762 12.2334 11.6001 12.4066 11.3441C12.5748 11.0881 12.7479 11.1275 12.9854 11.2161C13.2228 11.3047 14.4892 11.9251 14.7464 12.0531C14.7972 12.0784 14.8448 12.1012 14.8889 12.1224C15.0678 12.2082 15.1895 12.2665 15.2411 12.3535C15.3054 12.4618 15.3054 12.9739 15.0927 13.5746C14.8751 14.1752 13.8263 14.7513 13.3514 14.7956C13.3064 14.7999 13.2617 14.8053 13.2156 14.8108C12.7804 14.8635 12.228 14.9303 10.2596 14.1555C7.83426 13.2018 6.23324 10.8354 5.90955 10.357C5.88399 10.3192 5.8664 10.2932 5.85699 10.2806L5.85152 10.2733C5.70425 10.0762 4.8033 8.87067 4.8033 7.62685C4.8033 6.43682 5.38952 5.81726 5.65691 5.53467C5.67386 5.51676 5.68952 5.50021 5.70367 5.48494C5.94108 5.22895 6.21816 5.16495 6.39127 5.16495C6.56447 5.16495 6.73757 5.16495 6.88597 5.16985Z" fill="#7B808C"/>
</svg>
